# xmcd CD database file
#
# Track frame offsets:
#	150
#	13145
#	28447
#	42860
#	54814
#	66327
#	83677
#	96835
#	106877
#	121777
#	135512
#	144347
#	157992
#	170180
#	184715
#	197950
#	213655
#	230497
#	245922
#	266650
#	278322
#	290605
#	298565
#	311960
#	327375
#
# Disc length: 4545 seconds
#
# Revision: 0
# Processed by: cddbd v1.5.2PL0 Copyright (c) Steve Scherf et al.
# Submitted via: jetAudio 7
#
DISCID=7b11bf19
DTITLE=Various Artist - Zauber Am Klavier Disc 5
DYEAR=1900
DGENRE=Easy Listening
TTITLE0=Eine Schwarzwaldfahrt
TTITLE1=Rhapsody In Blue
TTITLE2=Man Müßte Klavier Spielen Können
TTITLE3=Swing Mit Mir
TTITLE4=Flip, Flop and Bop
TTITLE5=Isn't It Romantic
TTITLE6=Ich Tanze Mit Dir In Den Himmel Hinein
TTITLE7=Joker's Ragtime
TTITLE8=Moonglow
TTITLE9=Jenseits Von Eden
TTITLE10=Das Signal erklingt, Lebe Wohl
TTITLE11=99 Luftballons
TTITLE12=Junior's Boogie
TTITLE13=Manhattan Serenade
TTITLE14=Schön Wie Der Junge Frühling
TTITLE15=Something About The Way you Look Tonight
TTITLE16=Cherokee
TTITLE17=Nur Geträumt
TTITLE18=Moon Love
TTITLE19=Ich Bin Die Fesche Lola
TTITLE20=Smoke Gets In Your Eyes
TTITLE21=L'amour Est Bleu
TTITLE22=Boogie Woogie
TTITLE23=Goodbye, Johnny
TTITLE24=Der Hummelflug
EXTD=Readers Digest 1999
EXTT0=
EXTT1=
EXTT2=
EXTT3=
EXTT4=
EXTT5=
EXTT6=
EXTT7=
EXTT8=
EXTT9=
EXTT10=
EXTT11=
EXTT12=
EXTT13=
EXTT14=
EXTT15=
EXTT16=
EXTT17=
EXTT18=
EXTT19=
EXTT20=
EXTT21=
EXTT22=
EXTT23=
EXTT24=
PLAYORDER=
